<svg id="SvgjsSvg1011" xmlns="http://www.w3.org/2000/svg" version="1.1" xmlns:xlink="http://www.w3.org/1999/xlink" xmlns:svgjs="http://svgjs.com/svgjs" width="8" height="46" viewBox="0 0 8 46"><title>Shape 34</title><desc>Created with Avocode.</desc><defs id="SvgjsDefs1012"></defs><path id="SvgjsPath1013" d="M387 187L391 195L383 195Z " fill="#70c1b3" fill-opacity="1" transform="matrix(1,0,0,1,-383,-187)"></path><path id="SvgjsPath1014" d="M387 187L391 195L383 195Z " fill="#1aaf5d" fill-opacity="1" transform="matrix(1,0,0,1,-383,-187)"></path><path id="SvgjsPath1015" d="M391 210L383 214L383 206Z " fill="#70c1b3" fill-opacity="1" transform="matrix(1,0,0,1,-383,-187)"></path><path id="SvgjsPath1016" d="M391 210L383 214L383 206Z " fill="#f59d00" fill-opacity="1" transform="matrix(1,0,0,1,-383,-187)"></path><path id="SvgjsPath1017" d="M387 233L383 225L391 225Z " fill="#70c1b3" fill-opacity="1" transform="matrix(1,0,0,1,-383,-187)"></path><path id="SvgjsPath1018" d="M387 233L383 225L391 225Z " fill="#c23824" fill-opacity="1" transform="matrix(1,0,0,1,-383,-187)"></path></svg>