<svg width="28" height="489" viewBox="0 0 28 489" version="1.1" xmlns="http://www.w3.org/2000/svg" xmlns:xlink="http://www.w3.org/1999/xlink" xmlns:figma="http://www.figma.com/figma/ns">
<title>Group</title>
<desc>Created using Figma</desc>
<g id="Canvas" transform="translate(168 294)" figma:type="canvas">
<g id="Group" style="mix-blend-mode:normal;" figma:type="frame">
<g id="icon-fav" style="mix-blend-mode:normal;" figma:type="frame">
<g id="Vector" style="mix-blend-mode:normal;" figma:type="vector">
<use xlink:href="#path0_fill" transform="translate(-167.19 -293.168)" fill="#FFFFFF" style="mix-blend-mode:normal;"/>
</g>
</g>
<g id="icon-home" style="mix-blend-mode:normal;" figma:type="frame">
<g id="Vector" style="mix-blend-mode:normal;" figma:type="vector">
<use xlink:href="#path1_fill" transform="translate(-166.15 99)" fill="#FFFFFF" style="mix-blend-mode:normal;"/>
</g>
</g>
<g id="icon-kpis" style="mix-blend-mode:normal;" figma:type="frame">
<g id="Vector" style="mix-blend-mode:normal;" figma:type="vector">
<use xlink:href="#path2_fill" transform="translate(-166.15 -104.523)" fill="#FFFFFF" style="mix-blend-mode:normal;"/>
</g>
</g>
<g id="icon-map" style="mix-blend-mode:normal;" figma:type="frame">
<g id="Vector" style="mix-blend-mode:normal;" figma:type="vector">
<use xlink:href="#path3_fill" transform="translate(-162.121 -165.6)" fill="#FFFFFF" style="mix-blend-mode:normal;"/>
</g>
<g id="Vector" style="mix-blend-mode:normal;" figma:type="vector">
<use xlink:href="#path4_fill" transform="translate(-157.025 -150.724)" fill="#FFFFFF" style="mix-blend-mode:normal;"/>
</g>
<g id="Vector" style="mix-blend-mode:normal;" figma:type="vector">
<use xlink:href="#path5_fill" transform="translate(-166.15 -157.06)" fill="#FFFFFF" style="mix-blend-mode:normal;"/>
</g>
</g>
<g id="icon-opps" style="mix-blend-mode:normal;" figma:type="frame">
<g id="Vector" style="mix-blend-mode:normal;" figma:type="vector">
<use xlink:href="#path6_fill" transform="translate(-160.593 172.557)" fill="#FFFFFF" style="mix-blend-mode:normal;"/>
</g>
<g id="Vector" style="mix-blend-mode:normal;" figma:type="vector">
<use xlink:href="#path7_fill" transform="translate(-156.425 192.007)" fill="#FFFFFF" style="mix-blend-mode:normal;"/>
</g>
<g id="Vector" style="mix-blend-mode:normal;" figma:type="vector">
<use xlink:href="#path8_fill" transform="translate(-155.036 167)" fill="#FFFFFF" style="mix-blend-mode:normal;"/>
</g>
<g id="Vector" style="mix-blend-mode:normal;" figma:type="vector">
<use xlink:href="#path9_fill" transform="translate(-143.929 178.114)" fill="#FFFFFF" style="mix-blend-mode:normal;"/>
</g>
<g id="Vector" style="mix-blend-mode:normal;" figma:type="vector">
<use xlink:href="#path8_fill" transform="translate(-166.15 178.114)" fill="#FFFFFF" style="mix-blend-mode:normal;"/>
</g>
<g id="Vector" style="mix-blend-mode:normal;" figma:type="vector">
<use xlink:href="#path10_fill" transform="matrix(0.707107 -0.707107 0.707107 0.707107 -147.759 171.645)" fill="#FFFFFF" style="mix-blend-mode:normal;"/>
</g>
<g id="Vector" style="mix-blend-mode:normal;" figma:type="vector">
<use xlink:href="#path11_fill" transform="matrix(0.707107 -0.707107 0.707107 0.707107 -163.475 171.642)" fill="#FFFFFF" style="mix-blend-mode:normal;"/>
</g>
</g>
<g id="icon-overhead" style="mix-blend-mode:normal;" figma:type="frame">
<g id="overhead copy" style="mix-blend-mode:normal;" figma:type="vector">
<use xlink:href="#path12_fill" transform="translate(-166.15 -48.3982)" fill="#FFFFFF" style="mix-blend-mode:normal;"/>
</g>
</g>
<g id="icon-ppos" style="mix-blend-mode:normal;" figma:type="frame">
<g id="Vector" style="mix-blend-mode:normal;" figma:type="vector">
<use xlink:href="#path13_fill" transform="translate(-152.757 -231.1)" fill="#FFFFFF" style="mix-blend-mode:normal;"/>
</g>
<g id="Vector" style="mix-blend-mode:normal;" figma:type="vector">
<use xlink:href="#path14_fill" transform="translate(-148.71 -224.064)" fill="#FFFFFF" style="mix-blend-mode:normal;"/>
</g>
<g id="Vector" style="mix-blend-mode:normal;" figma:type="vector">
<use xlink:href="#path15_fill" transform="translate(-166.15 -227.558)" fill="#FFFFFF" style="mix-blend-mode:normal;"/>
</g>
<g id="Vector" style="mix-blend-mode:normal;" figma:type="vector">
<use xlink:href="#path16_fill" transform="translate(-152.763 -212.102)" fill="#FFFFFF" style="mix-blend-mode:normal;"/>
</g>
</g>
<g id="icon-views" style="mix-blend-mode:normal;" figma:type="frame">
<g id="Vector" style="mix-blend-mode:normal;" figma:type="vector">
<use xlink:href="#path17_fill" transform="translate(-165.263 19.5)" fill="#FFFFFF" style="mix-blend-mode:normal;"/>
</g>
</g>
</g>
</g>
<defs>
<path id="path0_fill" d="M 12.5 20.1773L 4.77333 25L 6.75 15.7858L 0 9.55068L 8.94667 8.67798L 12.5 0L 16.0533 8.67798L 25 9.55068L 18.25 15.7858L 20.2267 25L 12.5 20.1773Z"/>
<path id="path1_fill" fill-rule="evenodd" d="M 25 12.5914C 24.999 12.7238 24.9722 12.8547 24.9211 12.9767C 24.8699 13.0986 24.7954 13.2092 24.7019 13.3022C 24.6083 13.3951 24.4975 13.4685 24.3758 13.5183C 24.2541 13.568 24.1239 13.5931 23.9926 13.5922L 21.0296 13.5922C 20.7598 13.5912 20.5013 13.4827 20.3105 13.2903C 20.1197 13.0979 20.0121 12.8373 20.0111 12.5653L 20.0111 12.5354C 20.0111 12.2617 20.1187 11.9992 20.3103 11.8053C 20.5019 11.6115 20.7619 11.502 21.0333 11.5011L 22.7889 11.5011C 22.5819 9.48681 21.7953 7.57752 20.5259 6.00818L 19.3444 7.19936C 19.1452 7.39934 18.8756 7.51162 18.5944 7.51162C 18.3133 7.51162 18.0437 7.39934 17.8444 7.19936C 17.6459 6.99788 17.5344 6.72538 17.5344 6.44134C 17.5344 6.1573 17.6459 5.8848 17.8444 5.68332L 19.0259 4.49214C 17.4688 3.21031 15.5736 2.41591 13.5741 2.20686L 13.5741 3.94322C 13.5741 4.08298 13.5468 4.22136 13.4937 4.35048C 13.4407 4.4796 13.3629 4.59692 13.2649 4.69574C 13.1669 4.79456 13.0505 4.87295 12.9225 4.92643C 12.7944 4.97992 12.6571 5.00744 12.5185 5.00744L 12.4889 5.00744C 12.208 5.00744 11.9385 4.89493 11.7399 4.69464C 11.5412 4.49436 11.4296 4.22273 11.4296 3.93949L 11.4296 2.20686C 9.43178 2.41554 7.53804 3.20859 5.98148 4.4884L 7.16296 5.67958C 7.36154 5.88106 7.47299 6.15357 7.47299 6.43761C 7.47299 6.72164 7.36154 6.99415 7.16296 7.19563L 7.12963 7.22924C 7.03307 7.32859 6.91782 7.40753 6.79063 7.46141C 6.66344 7.5153 6.52686 7.54306 6.38889 7.54306C 6.25092 7.54306 6.11434 7.5153 5.98715 7.46141C 5.85995 7.40753 5.7447 7.32859 5.64815 7.22924L 4.44815 6.01939C 3.18475 7.58944 2.40341 9.49718 2.2 11.5085L 3.95926 11.5085C 4.0935 11.509 4.22633 11.5362 4.35017 11.5884C 4.474 11.6407 4.58642 11.717 4.681 11.813C 4.77558 11.9091 4.85046 12.023 4.90138 12.1482C 4.95231 12.2734 4.97826 12.4075 4.97778 12.5429L 4.97778 12.5728C 4.97583 12.8451 4.86739 13.1057 4.676 13.298C 4.48461 13.4903 4.22573 13.5987 3.95556 13.5996L 0.992593 13.5996C 0.730575 13.5977 0.47978 13.4921 0.294155 13.3057C 0.108529 13.1192 0.00290432 12.8668 0 12.6026C 1.0691e-15 9.2602 1.31696 6.05467 3.66117 3.69122C 6.00537 1.32777 9.18479 -2.50389e-10 12.5 -2.50392e-10C 15.8152 -2.5039e-10 18.9946 1.32777 21.3388 3.69122C 23.683 6.05467 25 9.2602 25 12.6026M 15.3519 8.55111L 8.74074 14.0813C 8.51943 14.2925 8.3208 14.5265 8.14815 14.7796C 6.2963 17.4458 10.1259 20.5339 12.3074 18.1403C 12.5153 17.9121 12.6979 17.6617 12.8519 17.3935L 16.7704 9.69748C 16.8806 9.5051 16.9189 9.27926 16.8783 9.06086C 16.8377 8.84246 16.7208 8.64596 16.5489 8.50693C 16.377 8.3679 16.1614 8.29554 15.9411 8.30296C 15.7208 8.31038 15.5105 8.39709 15.3481 8.54738"/>
<path id="path2_fill" d="M 2.07778 19.1519C 2.07778 19.2432 2.11407 19.3308 2.17866 19.3954C 2.24326 19.46 2.33087 19.4963 2.42222 19.4963L 24.5889 19.4963C 24.6802 19.4963 24.7679 19.46 24.8324 19.3954C 24.897 19.3308 24.9333 19.2432 24.9333 19.1519L 24.9333 17.4519C 24.9333 17.2963 24.7185 17.1074 24.5 17.0519L 16.5185 14.9852C 16.4784 14.9754 16.4407 14.9578 16.4074 14.9334L 12.3333 12.0815C 12.278 12.0462 12.2138 12.0275 12.1481 12.0275C 12.0825 12.0275 12.0183 12.0462 11.963 12.0815L 6.8037 15.0852C 6.73883 15.1237 6.66311 15.1399 6.58817 15.1312C 6.51323 15.1225 6.44322 15.0894 6.38889 15.0371L 2.18519 11.0111C 2.11852 10.9445 2.07778 11.5778 2.07778 11.4852L 2.07778 19.1519ZM 17.0963 13.3334L 24.5037 15.0778C 24.555 15.0913 24.6086 15.093 24.6606 15.0826C 24.7126 15.0723 24.7616 15.0502 24.8037 15.018C 24.8459 14.9859 24.8802 14.9445 24.9039 14.8971C 24.9276 14.8497 24.9402 14.7975 24.9407 14.7445L 24.9407 11.3408C 24.9408 11.2638 24.9154 11.189 24.8685 11.1281C 24.8216 11.0671 24.7559 11.0234 24.6815 11.0037L 18.7 9.4778C 18.663 9.4778 17.3667 8.80002 17.3333 8.77409L 12.4667 4.44446C 12.4113 4.40919 12.3471 4.39045 12.2815 4.39045C 12.2159 4.39045 12.1516 4.40919 12.0963 4.44446L 6.78518 6.85928C 6.72031 6.89779 6.64459 6.91393 6.56965 6.90524C 6.49471 6.89654 6.4247 6.86348 6.37037 6.81113L 2.66667 3.24817C 2.61785 3.20045 2.55596 3.16831 2.48884 3.15583C 2.42173 3.14335 2.35242 3.1511 2.28971 3.17808C 2.22701 3.20507 2.17374 3.25008 2.13666 3.3074C 2.09959 3.36472 2.08038 3.43176 2.08148 3.50002L 2.08148 8.61113C 2.08122 8.65822 2.09061 8.70487 2.10909 8.74819C 2.12756 8.79151 2.15472 8.83058 2.18889 8.86298L 6.3963 12.6556C 6.45089 12.7088 6.5216 12.7424 6.59734 12.7511C 6.67307 12.7598 6.74956 12.7431 6.81481 12.7037L 12.063 10C 12.1253 9.96277 12.1978 9.94595 12.2702 9.95193C 12.3426 9.95791 12.4113 9.98638 12.4667 10.0334L 16.963 13.2741C 17.003 13.3025 17.0484 13.3226 17.0963 13.3334ZM 25 20.7778L 25 21.1111C 25 21.2025 24.9637 21.2901 24.8991 21.3547C 24.8345 21.4193 24.7469 21.4556 24.6556 21.4556L 1.38519 21.4556C 1.02036 21.4556 0.670263 21.3117 0.410912 21.0551C 0.151561 20.7985 0.00390183 20.45 0 20.0852L 2.05597e-16 0.344464C 2.23587e-16 0.253112 0.0362896 0.165501 0.100885 0.100905C 0.165481 0.0363095 0.253092 1.99146e-05 0.344444 1.99146e-05L 0.688889 1.99146e-05C 0.734433 -0.000469832 0.779621 0.00807792 0.82184 0.0251685C 0.864058 0.042259 0.902468 0.067553 0.934846 0.0995865C 0.967224 0.13162 0.992927 0.169757 1.01047 0.21179C 1.02801 0.253823 1.03704 0.298918 1.03704 0.344464L 1.03704 20.0852C 1.03704 20.1766 1.07333 20.2642 1.13792 20.3288C 1.20252 20.3934 1.29013 20.4296 1.38148 20.4296L 24.6519 20.4296C 24.7442 20.4296 24.8327 20.4663 24.898 20.5316C 24.9633 20.5969 25 20.6855 25 20.7778Z"/>
<path id="path3_fill" d="M 5.64716 6.71461C 7.74762 6.71461 8.95281 8.19526 9.46932 8.84951L 9.95139 9.40045L 18.8698 9.40045L 20.075 6.12923L 2.47924 0L -6.56774e-08 6.71461L 5.64716 6.71461Z"/>
<path id="path4_fill" d="M 2.54811 5.09622C 3.95539 5.09622 5.09621 3.95539 5.09621 2.54811C 5.09621 1.14083 3.95539 0 2.54811 0C 1.14083 0 0 1.14083 0 2.54811C 0 3.95539 1.14083 5.09622 2.54811 5.09622Z"/>
<path id="path5_fill" d="M 23.174 2.72028L 13.1537 2.72028L 12.0519 1.48066C 11.3632 0.61981 10.6745 -2.6271e-07 9.64149 -2.6271e-07L 1.85943 -2.6271e-07C 0.860847 -2.6271e-07 0 0.688678 0 1.48066L 0 14.8754C 0 15.6674 0.860847 16.3561 1.85943 16.3561L 23.1396 16.3561C 24.1726 16.3561 24.999 15.6674 24.999 14.8754L 24.999 4.1665C 25.0334 3.37452 24.1726 2.72028 23.174 2.72028ZM 16.907 13.7047L 16.5627 14.049C 16.3217 14.2901 16.0462 14.3934 15.9429 14.2556L 13.7736 12.0519C 12.0174 13.2226 9.64149 12.7061 8.50517 10.95C 7.36885 9.19385 7.85093 6.81791 9.60705 5.68159C 11.3632 4.54527 13.7391 5.02735 14.8754 6.78348C 15.7019 8.0231 15.7019 9.60706 14.9443 10.8811L 17.1481 13.0849C 17.2169 13.1882 17.1481 13.4636 16.907 13.7047Z"/>
<path id="path6_fill" d="M 6.9428 0C 5.10181 0.00117773 3.33657 0.733027 2.0348 2.0348C 0.733027 3.33657 0.00117773 5.10181 1.05297e-15 6.9428C 2.10594e-15 8.51363 1.28927 10.8625 2.73414 13.1002C 3.40101 14.1523 3.97155 15.4046 4.1642 16.6716L 9.7214 16.6716C 9.91405 15.4046 10.4846 14.1598 11.1515 13.1002C 12.5963 10.8625 13.8856 8.51363 13.8856 6.9428C 13.8844 5.10181 13.1526 3.33657 11.8508 2.0348C 10.549 0.733027 8.78378 0.00117773 6.9428 0Z"/>
<path id="path7_fill" d="M 4.1679 4.21187e-15L 1.3893 4.21187e-15C 1.02084 0 0.667461 0.146373 0.406916 0.406918C 0.146372 0.667462 6.31781e-15 1.02084 4.21187e-15 1.3893C 6.31781e-15 1.75777 0.146372 2.11114 0.406916 2.37168C 0.667461 2.63223 1.02084 2.7786 1.3893 2.7786L 4.1679 2.7786C 4.53637 2.7786 4.88974 2.63223 5.15029 2.37168C 5.41083 2.11114 5.5572 1.75777 5.5572 1.3893C 5.5572 1.02084 5.41083 0.667462 5.15029 0.406918C 4.88974 0.146373 4.53637 4.21187e-15 4.1679 4.21187e-15Z"/>
<path id="path8_fill" d="M 2.7786 0L 0 0L 0 2.7786L 2.7786 2.7786L 2.7786 0Z"/>
<path id="path9_fill" d="M 2.7786 0L 0 0L 0 2.7786L 2.7786 2.7786L 2.7786 0Z"/>
<path id="path10_fill" d="M 2.7786 0L 0 0L 0 2.7786L 2.7786 2.7786L 2.7786 0Z"/>
<path id="path11_fill" d="M 2.7786 0L 0 0L 0 2.7786L 2.7786 2.7786L 2.7786 0Z"/>
<path id="path12_fill" fill-rule="evenodd" d="M 12.5 -5.82397e-06L 0 14.6431L 5.94615 14.6431L 5.94615 25L 19.4077 25L 19.4077 14.6469L 25 14.6469L 12.5 -5.82397e-06ZM 13.7971 19.375L 13.7971 21.3864L 11.5538 21.3864L 11.5538 19.4981C 10.5569 19.4616 9.58131 19.2005 8.70096 18.7347L 9.29904 16.6698C 10.2055 17.1655 11.2209 17.4323 12.2558 17.4466C 13.2596 17.4466 13.9635 17.0582 13.9635 16.3521C 13.9635 15.6841 13.4087 15.2586 12.1067 14.8168C 10.2231 14.1813 8.75865 13.2996 8.75865 11.5878C 8.75865 10.0344 10.4327 8.82062 11.5538 8.44658L 11.5538 6.77481L 13.7971 6.77481L 13.7971 8.33301C 14.6548 8.35334 15.4986 8.55195 16.274 8.91602L 15.726 10.9103C 14.9318 10.5205 14.0591 10.3137 13.1731 10.3054C 12.0288 10.3054 11.65 10.7996 11.65 11.2929C 11.65 11.8759 12.2615 12.2471 13.7577 12.8111C 15.8519 13.5525 16.8144 14.5229 16.8144 16.1107C 16.8135 17.6832 16.0404 19.0248 13.7971 19.3779L 13.7971 19.375Z"/>
<path id="path13_fill" d="M 8.46764 3.51215C 7.35708 2.39792 6.03733 1.51406 4.58419 0.911343C 3.13106 0.308623 1.57317 -0.00108647 2.75297e-07 2.86366e-06L 2.75297e-07 7.88429C 1.04263 8.08084 2.03352 8.49029 2.91075 9.08708L 8.46764 3.51215Z"/>
<path id="path14_fill" d="M 6.51912 8.46765C 6.52054 6.89442 6.21098 5.33644 5.60825 3.88326C 5.00551 2.43008 4.12147 1.11037 3.00698 -1.14707e-07L 0 3.00698C 0.950392 3.95076 1.63787 5.12636 1.99439 6.41744C 2.35091 7.70851 2.36412 9.07031 2.03272 10.3681L 6.13423 11.3904C 6.38231 10.4357 6.51159 9.45403 6.51912 8.46765Z"/>
<path id="path15_fill" d="M 4.20977 11.9618C 4.20976 10.9422 4.41087 9.93271 4.80157 8.99102C 5.19227 8.04933 5.76489 7.19396 6.48665 6.47388C 7.2084 5.75381 8.0651 5.18318 9.0077 4.79467C 9.95029 4.40615 10.9603 4.20739 11.9798 4.20977L 11.9798 -8.02949e-08C 8.80256 -8.02949e-08 5.75545 1.26215 3.5088 3.5088C 1.26215 5.75545 3.47195e-15 8.80256 0 11.9798C 1.86951e-15 15.157 1.26215 18.2041 3.5088 20.4508C 5.75545 22.6974 8.80256 23.9596 11.9798 23.9596L 11.9798 19.7498C 10.9572 19.7522 9.94429 19.5523 8.99933 19.1615C 8.05437 18.7707 7.19606 18.1969 6.47383 17.473C 5.75161 16.7491 5.17974 15.8894 4.79117 14.9436C 4.4026 13.9977 4.205 12.9843 4.20977 11.9618Z"/>
<path id="path16_fill" d="M 5.50878 9.17656e-08C 4.97022 1.06541 4.19287 1.99204 3.23733 2.70765C 2.2818 3.42325 1.17389 3.90851 1.37648e-07 4.12557L 1.37648e-07 10.6026C 2.67048 10.6016 5.26397 9.70783 7.36815 8.06349C 9.47234 6.41915 10.9664 4.11859 11.6129 1.52754L 5.50878 9.17656e-08Z"/>
<path id="path17_fill" fill-rule="evenodd" d="M 14.6664 14.8148C 14.6664 13.4666 14.1305 12.1737 13.1764 11.2204C 12.2224 10.267 10.9285 9.73148 9.57932 9.73148C 8.23013 9.73148 6.93621 10.267 5.98219 11.2204C 5.02818 12.1737 4.49222 13.4666 4.49222 14.8148L 3.1579 14.8148C 3.15872 13.51 3.55705 12.2363 4.29991 11.1632C 5.04277 10.0901 6.09495 9.26842 7.31653 8.80741C 6.85265 8.35766 6.53365 7.7798 6.40038 7.14782C 6.26711 6.51583 6.32564 5.85848 6.56847 5.25993C 6.8113 4.66138 7.22738 4.14887 7.76343 3.78802C 8.29949 3.42717 8.93112 3.23441 9.57747 3.23441C 10.2238 3.23441 10.8554 3.42717 11.3915 3.78802C 11.9276 4.14887 12.3436 4.66138 12.5865 5.25993C 12.8293 5.85848 12.8878 6.51583 12.7545 7.14782C 12.6213 7.7798 12.3023 8.35766 11.8384 8.80741C 13.06 9.26842 14.1122 10.0901 14.855 11.1632C 15.5979 12.2363 15.9962 13.51 15.997 14.8148L 14.6664 14.8148ZM 0 19.0741L 19.0882 19.0741L 19.0882 0L 0 0L 0 19.0741ZM 9.57747 4.57037C 9.1992 4.57037 8.82944 4.68246 8.51492 4.89245C 8.20041 5.10245 7.95528 5.40092 7.81052 5.75013C 7.66577 6.09934 7.62789 6.4836 7.70169 6.85432C 7.77548 7.22504 7.95763 7.56557 8.2251 7.83284C 8.49258 8.10011 8.83336 8.28213 9.20435 8.35587C 9.57534 8.42961 9.95989 8.39177 10.3094 8.24712C 10.6588 8.10247 10.9575 7.85752 11.1677 7.54324C 11.3778 7.22896 11.49 6.85946 11.49 6.48148C 11.489 5.97492 11.2872 5.48939 10.9287 5.1312C 10.5703 4.77301 10.0844 4.57135 9.57747 4.57037ZM 23.3506 6.75926L 23.3506 23.3333L 6.74944 23.3333L 6.74944 25L 25 25L 25 6.75926L 23.3506 6.75926ZM 22.1609 3.9037L 20.493 3.9037L 20.493 20.4778L 3.89177 20.4778L 3.89177 22.1444L 22.146 22.1444L 22.1609 3.9037Z"/>
</defs>
</svg>
